<mxfile host="app.diagrams.net" modified="2024-01-22T17:28:57.092Z" agent="Mozilla/5.0 (Windows NT 10.0; Win64; x64) AppleWebKit/537.36 (KHTML, like Gecko) Chrome/120.0.0.0 Safari/537.36" etag="O61PTAduQxMCAuNK5R28" version="22.1.17" type="device">
  <diagram name="Página-1" id="RZb7Ob5ed5OA5BJfn_0h">
    <mxGraphModel dx="1434" dy="772" grid="1" gridSize="10" guides="1" tooltips="1" connect="1" arrows="1" fold="1" page="1" pageScale="1" pageWidth="827" pageHeight="1169" math="0" shadow="0">
      <root>
        <mxCell id="0" />
        <mxCell id="1" parent="0" />
        <mxCell id="G4PrBYdIK3dhg6aQtYhX-15" value="" style="html=1;verticalAlign=bottom;startArrow=oval;startFill=1;endArrow=block;startSize=8;curved=0;rounded=0;" edge="1" parent="1">
          <mxGeometry width="60" relative="1" as="geometry">
            <mxPoint x="290" y="210" as="sourcePoint" />
            <mxPoint x="290" y="260" as="targetPoint" />
          </mxGeometry>
        </mxCell>
        <mxCell id="G4PrBYdIK3dhg6aQtYhX-18" value="" style="edgeStyle=orthogonalEdgeStyle;rounded=0;orthogonalLoop=1;jettySize=auto;html=1;" edge="1" parent="1" source="G4PrBYdIK3dhg6aQtYhX-16" target="G4PrBYdIK3dhg6aQtYhX-17">
          <mxGeometry relative="1" as="geometry" />
        </mxCell>
        <mxCell id="G4PrBYdIK3dhg6aQtYhX-16" value="login do usuario(senha e nome)" style="rounded=1;whiteSpace=wrap;html=1;" vertex="1" parent="1">
          <mxGeometry x="230" y="260" width="120" height="60" as="geometry" />
        </mxCell>
        <mxCell id="G4PrBYdIK3dhg6aQtYhX-20" value="" style="edgeStyle=orthogonalEdgeStyle;rounded=0;orthogonalLoop=1;jettySize=auto;html=1;" edge="1" parent="1" source="G4PrBYdIK3dhg6aQtYhX-17" target="G4PrBYdIK3dhg6aQtYhX-19">
          <mxGeometry relative="1" as="geometry" />
        </mxCell>
        <mxCell id="G4PrBYdIK3dhg6aQtYhX-17" value="verificar se login já existe" style="rounded=1;whiteSpace=wrap;html=1;" vertex="1" parent="1">
          <mxGeometry x="230" y="380" width="120" height="60" as="geometry" />
        </mxCell>
        <mxCell id="G4PrBYdIK3dhg6aQtYhX-22" value="" style="edgeStyle=orthogonalEdgeStyle;rounded=0;orthogonalLoop=1;jettySize=auto;html=1;" edge="1" parent="1" source="G4PrBYdIK3dhg6aQtYhX-19" target="G4PrBYdIK3dhg6aQtYhX-21">
          <mxGeometry relative="1" as="geometry" />
        </mxCell>
        <mxCell id="G4PrBYdIK3dhg6aQtYhX-29" value="" style="edgeStyle=orthogonalEdgeStyle;rounded=0;orthogonalLoop=1;jettySize=auto;html=1;" edge="1" parent="1" source="G4PrBYdIK3dhg6aQtYhX-19" target="G4PrBYdIK3dhg6aQtYhX-28">
          <mxGeometry relative="1" as="geometry" />
        </mxCell>
        <mxCell id="G4PrBYdIK3dhg6aQtYhX-19" value="" style="rhombus;whiteSpace=wrap;html=1;" vertex="1" parent="1">
          <mxGeometry x="265" y="480" width="50" height="50" as="geometry" />
        </mxCell>
        <mxCell id="G4PrBYdIK3dhg6aQtYhX-25" value="" style="edgeStyle=orthogonalEdgeStyle;rounded=0;orthogonalLoop=1;jettySize=auto;html=1;" edge="1" parent="1" source="G4PrBYdIK3dhg6aQtYhX-21" target="G4PrBYdIK3dhg6aQtYhX-24">
          <mxGeometry relative="1" as="geometry" />
        </mxCell>
        <mxCell id="G4PrBYdIK3dhg6aQtYhX-21" value="criar novo login" style="rounded=1;whiteSpace=wrap;html=1;" vertex="1" parent="1">
          <mxGeometry x="370" y="475" width="120" height="60" as="geometry" />
        </mxCell>
        <mxCell id="G4PrBYdIK3dhg6aQtYhX-23" value="login não existe" style="text;html=1;strokeColor=none;fillColor=none;align=center;verticalAlign=middle;whiteSpace=wrap;rounded=0;" vertex="1" parent="1">
          <mxGeometry x="310" y="470" width="60" height="30" as="geometry" />
        </mxCell>
        <mxCell id="G4PrBYdIK3dhg6aQtYhX-27" value="" style="edgeStyle=orthogonalEdgeStyle;rounded=0;orthogonalLoop=1;jettySize=auto;html=1;" edge="1" parent="1" source="G4PrBYdIK3dhg6aQtYhX-24" target="G4PrBYdIK3dhg6aQtYhX-26">
          <mxGeometry relative="1" as="geometry" />
        </mxCell>
        <mxCell id="G4PrBYdIK3dhg6aQtYhX-24" value="salvar dados do login" style="rounded=1;whiteSpace=wrap;html=1;" vertex="1" parent="1">
          <mxGeometry x="550" y="475" width="120" height="60" as="geometry" />
        </mxCell>
        <mxCell id="G4PrBYdIK3dhg6aQtYhX-26" value="" style="ellipse;whiteSpace=wrap;html=1;aspect=fixed;strokeColor=#000000;fillColor=#000000;" vertex="1" parent="1">
          <mxGeometry x="605" y="590" width="10" height="10" as="geometry" />
        </mxCell>
        <mxCell id="G4PrBYdIK3dhg6aQtYhX-32" value="" style="edgeStyle=orthogonalEdgeStyle;rounded=0;orthogonalLoop=1;jettySize=auto;html=1;" edge="1" parent="1" source="G4PrBYdIK3dhg6aQtYhX-28" target="G4PrBYdIK3dhg6aQtYhX-31">
          <mxGeometry relative="1" as="geometry" />
        </mxCell>
        <mxCell id="G4PrBYdIK3dhg6aQtYhX-28" value="acesso ao site" style="rounded=1;whiteSpace=wrap;html=1;" vertex="1" parent="1">
          <mxGeometry x="230" y="585" width="120" height="60" as="geometry" />
        </mxCell>
        <mxCell id="G4PrBYdIK3dhg6aQtYhX-30" value="login existe" style="text;html=1;strokeColor=none;fillColor=none;align=center;verticalAlign=middle;whiteSpace=wrap;rounded=0;" vertex="1" parent="1">
          <mxGeometry x="290" y="530" width="60" height="30" as="geometry" />
        </mxCell>
        <mxCell id="G4PrBYdIK3dhg6aQtYhX-31" value="" style="ellipse;whiteSpace=wrap;html=1;aspect=fixed;strokeColor=#000000;fillColor=#000000;" vertex="1" parent="1">
          <mxGeometry x="285" y="690" width="10" height="10" as="geometry" />
        </mxCell>
      </root>
    </mxGraphModel>
  </diagram>
</mxfile>
